<svg height='300px' width='300px'  fill="#000000" xmlns="http://www.w3.org/2000/svg" data-name="Layer 1" viewBox="0 0 100 100" x="0px" y="0px"><title>Artboard 2</title><path d="M6.35,57.81l.3,0A2.5,2.5,0,0,0,8.84,55,41.61,41.61,0,0,1,75.91,17.43,41.34,41.34,0,0,1,91.48,45.21a2.5,2.5,0,0,0,5-.59,46.61,46.61,0,0,0-92.57,11A2.5,2.5,0,0,0,6.35,57.81Z"></path><path d="M41.51,95.82a2.5,2.5,0,0,0,3.35-1.12,79.37,79.37,0,0,0,7.78-44.88,2.5,2.5,0,0,0-5,.59,74.38,74.38,0,0,1-7.29,42.06A2.5,2.5,0,0,0,41.51,95.82Z"></path><path d="M81.13,83.47a2.5,2.5,0,0,0,2.94-2,112.65,112.65,0,0,0,1.41-35.59A35.58,35.58,0,0,0,78.78,29a2.5,2.5,0,1,0-4,3,30.58,30.58,0,0,1,5.77,14.56,107.66,107.66,0,0,1-1.35,34A2.5,2.5,0,0,0,81.13,83.47Z"></path><path d="M13.4,78.2a2.5,2.5,0,0,0,3.26-1.37,46.65,46.65,0,0,0,3.13-23.11A30.58,30.58,0,0,1,64.46,23.09a2.5,2.5,0,1,0,2.34-4.42,35.58,35.58,0,0,0-52,35.64A41.64,41.64,0,0,1,12,74.94,2.5,2.5,0,0,0,13.4,78.2Z"></path><path d="M53.6,96.3A2.5,2.5,0,0,0,56.88,95a90.69,90.69,0,0,0,6.71-46.47,13.53,13.53,0,1,0-26.87,3.19,64.45,64.45,0,0,1,.41,9.61,2.5,2.5,0,1,0,5,.16,69.36,69.36,0,0,0-.44-10.36,8.53,8.53,0,1,1,16.94-2A85.69,85.69,0,0,1,52.29,93,2.5,2.5,0,0,0,53.6,96.3Z"></path><path d="M30.74,92.49a2.5,2.5,0,0,0,3.38-1,68.6,68.6,0,0,0,5.8-14.82,2.5,2.5,0,0,0-4.84-1.27,63.61,63.61,0,0,1-5.38,13.74A2.5,2.5,0,0,0,30.74,92.49Z"></path><path d="M69.58,47.88A2.5,2.5,0,0,0,72.05,50l.33,0a2.5,2.5,0,0,0,2.16-2.78A24.58,24.58,0,0,0,42.4,26.81,2.5,2.5,0,0,0,44,31.56a19.57,19.57,0,0,1,25.6,16.29Z"></path><path d="M66.88,93A2.5,2.5,0,0,0,70,91.4a101.07,101.07,0,0,0,5.16-29,2.5,2.5,0,1,0-5-.15,96.06,96.06,0,0,1-4.9,27.6A2.5,2.5,0,0,0,66.88,93Z"></path><path d="M21.39,86.66a2.5,2.5,0,0,0,3.37-1.08,57.35,57.35,0,0,0,6-33.16,19.58,19.58,0,0,1,3-12.95,2.5,2.5,0,0,0-4.19-2.72A24.59,24.59,0,0,0,25.77,53a52.36,52.36,0,0,1-5.46,30.28A2.5,2.5,0,0,0,21.39,86.66Z"></path></svg>