<svg xmlns="http://www.w3.org/2000/svg" xmlns:xlink="http://www.w3.org/1999/xlink" width="78.351" height="77.675" viewBox="0 0 78.351 77.675">
  <defs>
    <linearGradient id="linear-gradient" x1="0.387" y1="0.992" x2="0.613" y2="0.008" gradientUnits="objectBoundingBox">
      <stop offset="0" stop-color="#f58529"/>
      <stop offset="0.161" stop-color="#feda77"/>
      <stop offset="0.431" stop-color="#dd2a7b"/>
      <stop offset="0.741" stop-color="#8134af"/>
      <stop offset="1" stop-color="#515bd4"/>
    </linearGradient>
  </defs>
  <path id="icon_instagram" d="M22.613,1436H55.739a22.533,22.533,0,0,1,22.612,22.32v33.036a22.531,22.531,0,0,1-22.612,22.32H22.613A22.532,22.532,0,0,1,0,1491.355V1458.32A22.534,22.534,0,0,1,22.613,1436Zm16.351,17.866a21.9,21.9,0,1,1-21.9,21.9A21.9,21.9,0,0,1,38.964,1453.866Zm0,7.4a14.5,14.5,0,1,1-14.5,14.5A14.506,14.506,0,0,1,38.964,1461.262Zm21.185-10.431a3.555,3.555,0,1,1-3.554,3.554A3.556,3.556,0,0,1,60.149,1450.831Zm-34.829-8.486H53.035a18.923,18.923,0,0,1,18.917,18.818v27.853a18.921,18.921,0,0,1-18.917,18.816H25.32A18.923,18.923,0,0,1,6.4,1489.016v-27.854A18.924,18.924,0,0,1,25.32,1442.345Z" transform="translate(0 -1436)" fill-rule="evenodd" fill="url(#linear-gradient)"/>
</svg>
