<?xml version="1.0" encoding="utf-8"?>
<!-- Generator: Adobe Illustrator 22.1.0, SVG Export Plug-In . SVG Version: 6.00 Build 0)  -->
<svg version="1.1"
	 id="Laag_1" xmlns:cc="http://creativecommons.org/ns#" xmlns:dc="http://purl.org/dc/elements/1.1/" xmlns:inkscape="http://www.inkscape.org/namespaces/inkscape" xmlns:rdf="http://www.w3.org/1999/02/22-rdf-syntax-ns#" xmlns:sodipodi="http://sodipodi.sourceforge.net/DTD/sodipodi-0.dtd" xmlns:svg="http://www.w3.org/2000/svg"
	 xmlns="http://www.w3.org/2000/svg" xmlns:xlink="http://www.w3.org/1999/xlink" x="0px" y="0px" viewBox="0 0 300 300"
	 style="enable-background:new 0 0 300 300;" xml:space="preserve">
<g>
	<path d="M150,0c-23.8,0-43.4,19.6-43.4,43.4c0,20.9,15.1,38.5,34.9,42.5v30.8H43.4c-5.2,0-9.4,4.2-9.4,9.3c0,0,0,0,0,0.1v33.3
		C14.6,163.7,0,181,0,201.6c0,23.8,19.5,43.3,43.3,43.3c23.8,0,43.4-19.5,43.4-43.3c0-20.6-14.7-38-34.1-42.3v-23.9h88.8v78.8
		c-19.8,4-34.9,21.6-34.9,42.5c0,23.8,19.6,43.3,43.4,43.3c23.8,0,43.4-19.5,43.4-43.3c0-20.3-14.2-37.4-33.1-42v-79.3h87v24
		c-19.3,4.4-34,21.7-34,42.3c0,23.8,19.5,43.3,43.4,43.3c23.8,0,43.3-19.5,43.3-43.3c0-20.6-14.6-38-34-42.3V126
		c0-5.2-4.2-9.4-9.3-9.4c0,0,0,0,0,0h-96.4V85.4c18.9-4.6,33.1-21.7,33.1-42C193.4,19.6,173.8,0,150,0z M150,18.8
		c13.7,0,24.6,10.9,24.6,24.6S163.7,68,150,68c-13.7,0-24.6-10.9-24.6-24.6S136.3,18.8,150,18.8z M43.4,177
		c13.7,0,24.6,10.9,24.6,24.6c0,13.7-10.9,24.6-24.6,24.6c-13.7,0-24.6-10.9-24.6-24.6C18.7,187.9,29.7,177,43.4,177z M256.6,177
		c13.7,0,24.6,10.9,24.6,24.6c0,13.7-10.9,24.6-24.6,24.6c-13.7,0-24.6-10.9-24.6-24.6C232,187.9,242.9,177,256.6,177z M150,232
		c13.7,0,24.6,10.9,24.6,24.6s-10.9,24.6-24.6,24.6c-13.7,0-24.6-10.9-24.6-24.6S136.3,232,150,232z"/>
</g>
</svg>
