<?xml version="1.0" encoding="utf-8"?>
<!-- Generator: Adobe Illustrator 22.1.0, SVG Export Plug-In . SVG Version: 6.00 Build 0)  -->
<svg version="1.1" xmlns="http://www.w3.org/2000/svg" xmlns:xlink="http://www.w3.org/1999/xlink" x="0px" y="0px"
	 viewBox="0 0 300 300" style="enable-background:new 0 0 300 300;" xml:space="preserve">
<style type="text/css">
	.st0{fill:none;stroke:#000000;stroke-width:11.3386;stroke-miterlimit:10;}
	.st1{display:none;fill:none;stroke:#000000;stroke-width:11.3386;stroke-miterlimit:10;}
	.st2{display:none;}
	.st3{display:inline;}
	.st4{display:inline;fill:none;stroke:#000000;stroke-width:12.1817;stroke-miterlimit:10;}
</style>
<g id="Laag_2">
	<path class="st0" d="M246.9,55.8v94.1c0,59.4-41.4,109.1-96.9,121.9C94.5,259,53.1,209.3,53.1,149.9V55.8l96.9-31L246.9,55.8z"/>
	<path class="st0" d="M208.1,92.8v56.5c0,35.6-24.8,65.5-58.1,73.1c-33.3-7.7-58.1-37.5-58.1-73.1V92.8L150,74.3L208.1,92.8z"/>
	<polyline class="st1" points="180.5,117.5 150.1,179.1 119.4,148.4 	"/>
	<g>
		<path d="M146.1,183.1l-26.7-26.7c-2.2-2.2-2.2-5.8,0-8l0,0c2.2-2.2,5.8-2.2,8,0l21.2,21.2l24.4-49.5c1.4-2.8,4.8-4,7.6-2.6l0,0
			c2.8,1.4,4,4.8,2.6,7.6l-27.9,56.6C153.5,185.1,148.9,185.9,146.1,183.1z"/>
	</g>
</g>
<g id="perfect_plan" class="st2">
	<g class="st3">
		<path d="M247.7,7H52.3C27.4,7,7,27.4,7,52.3v195.4c0,25,20.3,45.3,45.3,45.3h148.4v-10.4H52.3c-19.2,0-34.8-15.6-34.8-34.8V52.3
			c0-19.2,15.6-34.8,34.8-34.8h195.4c19.2,0,34.8,15.6,34.8,34.8v148.4H293V52.3C293,27.4,272.6,7,247.7,7z"/>
	</g>
	<line class="st0" x1="140.6" y1="82.1" x2="250.5" y2="82.1"/>
	<line class="st0" x1="140.6" y1="152.2" x2="250.5" y2="152.2"/>
	<g class="st3">
		<path d="M244.8,87.8h-98.5c-3.1,0-5.7-2.5-5.7-5.7v0c0-3.1,2.5-5.7,5.7-5.7h98.5c3.1,0,5.7,2.5,5.7,5.7v0
			C250.5,85.2,248,87.8,244.8,87.8z"/>
	</g>
	<g class="st3">
		<path d="M244.8,157.8h-98.5c-3.1,0-5.7-2.5-5.7-5.7l0,0c0-3.1,2.5-5.7,5.7-5.7h98.5c3.1,0,5.7,2.5,5.7,5.7l0,0
			C250.5,155.3,248,157.8,244.8,157.8z"/>
	</g>
	<circle class="st4" cx="246.8" cy="246.8" r="40"/>
	<polyline class="st0" points="103.5,57.5 79.2,106.8 54.6,82.2 	"/>
	<polyline class="st0" points="103.5,127.5 79.2,176.8 54.6,152.2 	"/>
	<g class="st3">
		<path d="M75.2,110.8L54.6,90.2c-2.2-2.2-2.2-5.8,0-8l0,0c2.2-2.2,5.8-2.2,8,0l15,15L95.9,60c1.4-2.8,4.8-4,7.6-2.6l0,0
			c2.8,1.4,4,4.8,2.6,7.6l-21.8,44.2C82.6,112.8,77.9,113.5,75.2,110.8z"/>
	</g>
	<g class="st3">
		<path d="M75.2,180.8l-20.6-20.6c-2.2-2.2-2.2-5.8,0-8l0,0c2.2-2.2,5.8-2.2,8,0l15,15l18.3-37.1c1.4-2.8,4.8-4,7.6-2.6l0,0
			c2.8,1.4,4,4.8,2.6,7.6l-21.8,44.2C82.6,182.8,77.9,183.6,75.2,180.8z"/>
	</g>
	<g class="st3">
		<path d="M75.2,250.9l-20.6-20.6c-2.2-2.2-2.2-5.8,0-8h0c2.2-2.2,5.8-2.2,8,0l15,15l18.3-37.1c1.4-2.8,4.8-4,7.6-2.6l0,0
			c2.8,1.4,4,4.8,2.6,7.6l-21.8,44.2C82.6,252.9,77.9,253.6,75.2,250.9z"/>
	</g>
	<polyline class="st0" points="267.8,246.8 246.8,246.8 246.8,217.2 	"/>
	<g class="st3">
		<path d="M262.2,252.5h-15.3c-3.1,0-5.7-2.5-5.7-5.7v-24c0-3.1,2.5-5.7,5.7-5.7l0,0c3.1,0,5.7,2.5,5.7,5.7v18.3h9.7
			c3.1,0,5.7,2.5,5.7,5.7l0,0C267.8,249.9,265.3,252.5,262.2,252.5z"/>
	</g>
</g>
</svg>
