<svg xmlns="http://www.w3.org/2000/svg" width="78.223" height="63.566" viewBox="0 0 78.223 63.566">
  <path id="icon_twitter" d="M143.93,178.145a32.034,32.034,0,0,1-9.2,2.58,16.073,16.073,0,0,0,7.03-8.9,32.309,32.309,0,0,1-10.17,3.926,15.8,15.8,0,0,0-11.816-5.085,16.022,16.022,0,0,0-15.966,16.041,16.67,16.67,0,0,0,.411,3.664,45.6,45.6,0,0,1-33.054-16.751,15.979,15.979,0,0,0,4.973,21.351,15.864,15.864,0,0,1-7.291-1.87v.112A16.053,16.053,0,0,0,81.71,208.956a15.78,15.78,0,0,1-7.217.262A16,16,0,0,0,89.45,220.36a31.861,31.861,0,0,1-19.93,6.88,32.631,32.631,0,0,1-3.814-.224,45.411,45.411,0,0,0,24.6,7.217c29.465,0,45.655-24.454,45.655-45.655,0-.71,0-1.383-.037-2.094A32.05,32.05,0,0,0,143.93,178.145Z" transform="translate(-65.707 -170.667)" fill="#1da1f2"/>
</svg>
